<?xml version="1.0" encoding="UTF-8"?>
<svg width="180px" height="180px" viewBox="0 0 180 180" version="1.1" xmlns="http://www.w3.org/2000/svg" xmlns:xlink="http://www.w3.org/1999/xlink">
    <title>Group</title>
    <g id="Page-1" stroke="none" stroke-width="1" fill="none" fill-rule="evenodd">
        <g id="Group">
            <rect id="Rectangle" x="0" y="0" width="180" height="180"></rect>
            <g id="logo" transform="translate(32.000000, 21.000000)" fill-rule="nonzero">
                <path d="M5.79,131 L42.36,93.35 L30.36,68.43 L2.21,127 C-0.63,132.9 0.21,136.18 3.72,136 C2.19,136 2,134.86 5.79,131 Z" id="Path" fill="#F57FFF"></path>
                <polygon id="Path" fill="#EC00FF" points="9.61 133.96 9.61 133.95 65.46 102.41 65.46 102.41"></polygon>
                <path d="M4.52,136 L4.41,136 L4.52,136 Z" id="Path" fill="#EC00FF"></path>
                <path d="M7,135.21 L6.32,135.47 C6.57,135.39 6.8,135.31 7,135.21 Z" id="Path" fill="#EC00FF"></path>
                <path d="M6,135.58 L5.38,135.77 C5.62,135.72 5.83,135.64 6,135.58 Z" id="Path" fill="#EC00FF"></path>
                <path d="M6.44,1.61 L7.03,1.83 L6.44,1.61 Z" id="Path" fill="#00CFFF"></path>
                <path d="M5.67,5.78 C0.51,0.62 3.24,0.5 6.33,1.57 C0.69,-0.43 -1.22,2.88 2.22,10.02 L30.36,68.47 L42.46,43.32 L5.67,5.78 Z" id="Path" fill="#7FE6FF"></path>
                <polygon id="Path" fill="#00CFFF" points="9.61 3.09 9.61 3.09 110.71 60.2"></polygon>
                <polygon id="Path" fill="#00CFFF" points="65.46 102.41 65.46 102.41 102.69 81.38 102.69 81.38"></polygon>
                <polygon id="Path" fill="#00CFFF" points="102.69 81.38 65.46 102.41 65.46 102.41 102.69 81.38"></polygon>
                <polygon id="Path" fill="#7BA7FF" points="66.85 68.19 42.46 43.31 30.36 68.47 42.36 93.39"></polygon>
                <path d="M6.33,1.57 L6.44,1.57 L6.33,1.57 Z" id="Path" fill="#00CFFF"></path>
                <polygon id="Path" fill="#00CFFF" points="102.69 81.38 110.71 76.85 102.69 81.38"></polygon>
                <path d="M9.35,2.94 C8.59248323,2.51764505 7.80737212,2.14680533 7,1.83 C7.88424774,2.19841648 8.7457725,2.61916113 9.58,3.09 L9.35,2.94 Z" id="Path" fill="#00CFFF"></path>
                <polygon id="Path" fill="#00CFFF" points="102.69 81.38 110.71 76.85 102.69 81.38"></polygon>
                <path d="M5.67,5.78 L42.46,43.32 L43.32,41.54 C45.1772285,37.5474526 48.6286091,34.5205707 52.8293723,33.2002221 C57.0301356,31.8798735 61.5925839,32.3879161 65.4,34.6 L110.71,60.2 L9.61,3.09 C8.76603145,2.61808488 7.89445978,2.19732614 7,1.83 L6.41,1.61 L6.3,1.61 C3.24,0.5 0.51,0.62 5.67,5.78 Z" id="Path" fill="#40DBFF"></path>
                <polygon id="Path" fill="#00CFFF" points="102.69 81.38 110.71 76.85 102.69 81.38"></polygon>
                <path d="M43.32,41.54 L42.46,43.32 L66.85,68.19 L75.6,59.19 C82.09,52.51 94.04,50.79 102.15,55.37 L110.71,60.21 L65.4,34.6 C61.5925839,32.3879161 57.0301356,31.8798735 52.8293723,33.2002221 C48.6286091,34.5205707 45.1772285,37.5474526 43.32,41.54 L43.32,41.54 Z" id="Path" fill="#3DBBFF"></path>
                <path d="M6.35,135.47 L6.04,135.58 L6.35,135.47 Z" id="Path" fill="#EC00FF"></path>
                <path d="M9.14,134.22 L9.61,133.96 C8.77886576,134.433789 7.91693756,134.851389 7.03,135.21 C7.75470479,134.927612 8.45962457,134.596868 9.14,134.22 L9.14,134.22 Z" id="Path" fill="#EC00FF"></path>
                <path d="M5.42,135.77 C5.11,135.85 4.81,135.92 4.52,135.97 C4.82332044,135.919269 5.12374119,135.852509 5.42,135.77 Z" id="Path" fill="#EC00FF"></path>
                <path d="M4.41,136 C4.18148582,136.03445 3.95103066,136.05449 3.72,136.06 C3.95122122,136.058203 4.18193907,136.03814 4.41,136 Z" id="Path" fill="#EC00FF"></path>
                <path d="M43.37,95.48 L42.37,93.39 L5.79,131 C1.97,134.82 2.19,136 3.72,136 C3.95103066,135.99449 4.18148582,135.97445 4.41,135.94 L4.52,135.94 C4.81,135.89 5.11,135.82 5.42,135.74 L6.04,135.55 L6.35,135.44 L7.03,135.18 C7.91693756,134.821389 8.77886576,134.403789 9.61,133.93 L65.46,102.38 C61.6554473,104.591791 57.0969044,105.104124 52.8963033,103.79203 C48.6957023,102.479937 45.2392305,99.4640452 43.37,95.48 Z" id="Path" fill="#F140FF"></path>
                <path d="M43.37,95.48 C45.2335927,99.4692354 48.6876462,102.49184 52.8888254,103.809819 C57.0900046,105.127799 61.6516503,104.619853 65.46,102.41 L102.69,81.41 C94.58,85.99 82.61,84.3 76.09,77.65 L66.85,68.22 L42.36,93.42 L43.37,95.48 Z" id="Path" fill="#B353FF"></path>
                <path d="M110.71,60.2 L102.15,55.36 C94.04,50.78 82.09,52.5 75.6,59.18 L66.85,68.18 L76.09,77.61 C82.61,84.26 94.58,85.95 102.69,81.37 L110.69,76.84 C118.82,72.27 118.82,64.78 110.71,60.2 Z" id="Path" fill="#945DFF"></path>
            </g>
        </g>
    </g>
</svg>