<svg xmlns="http://www.w3.org/2000/svg" viewBox="0 0 351.79 135.05">
  <defs>
    <style>
      .cls-2{fill:#ec00ff}.cls-3{fill:#00cfff}
    </style>
  </defs>
  <g>
    <path d="M85.89 63.18V46.54H63.1v16.64h-4.32V25.37h4.32v17.07h22.79V25.37h4.32v37.81zM102.43 29.53V42h19.06v4.16h-19.06v13h22v4.11H98.11v-37.9h25.65v4.16zM153.22 59.07v4.11h-20.9V25.37h4.32v33.7zM181.14 59.07v4.11h-20.9V25.37h4.32v33.7zM223.54 44.27c0 10.64-8.75 19.12-19.77 19.12S184 54.91 184 44.27s8.75-19 19.82-19 19.72 8.36 19.72 19zm-35.21 0a15.4 15.4 0 0030.78 0 15.09 15.09 0 00-15.34-14.9c-8.42 0-15.44 6.63-15.44 14.9zM9.85 78.55v9h17.36v7.75H9.85v14.27H0V70.8h28.7v7.75zM68.56 93.09c0 10.23-6.8 16.7-17.64 16.7s-17.87-6.47-17.87-16.7V70.64h9.85v22.45c0 5.25 3.37 8.46 8.07 8.46s7.8-3.21 7.8-8.46V70.64h9.79zM94.25 78.55v30.8H84.4v-30.8H72.84v-8h33.07v8zM145.61 93.09c0 10.23-6.8 16.7-17.64 16.7s-17.87-6.47-17.87-16.7V70.64h9.9v22.45c0 5.25 3.37 8.46 8.07 8.46s7.8-3.21 7.8-8.46V70.64h9.79zM168.72 98.45H161v10.9h-9.84V70.64h17.31c10.23 0 16.09 4.86 16.09 13.49 0 5.92-2.49 10.18-7 12.44l8.13 12.78h-11.22zm-.28-7.74c4.26 0 6.75-2.16 6.75-6.25s-2.49-6.08-6.75-6.08H161v12.33zM200.62 78.39v7.69h18.47v7.74h-18.47v7.8H221v7.74h-30.23V70.65h30.31v7.74z"/>
    <path d="M240.79 130l36.57-37.65-12-24.92L237.21 126c-2.84 5.9-2 9.18 1.51 9-1.53 0-1.72-1.14 2.07-5z" fill="#f57fff"/>
    <path class="cls-2" d="M244.61 132.96v-.01l55.85-31.54-55.85 31.55zM239.52 135h-.11zM242 134.21l-.68.26c.25-.08.48-.16.68-.26zM241 134.58l-.62.19c.24-.05.45-.13.62-.19z"/>
    <path class="cls-3" d="M241.44.61l.59.22z"/>
    <path d="M240.67 4.78c-5.16-5.16-2.43-5.28.66-4.21-5.64-2-7.55 1.31-4.11 8.45l28.14 58.45 12.1-25.15z" fill="#7fe6ff"/>
    <path class="cls-3" d="M244.61 2.09l101.1 57.11-101.1-57.11zM300.46 101.41l37.23-21.03-37.23 21.03zM337.69 80.38l-37.23 21.03 37.23-21.03z"/>
    <path fill="#7ba7ff" d="M301.85 67.19l-24.39-24.88-12.1 25.16 12 24.92 24.49-25.2z"/>
    <path class="cls-3" d="M241.33.57h.11zM337.69 80.38l8.02-4.53-8.02 4.53zM244.35 1.94A19.31 19.31 0 00242 .83a24.13 24.13 0 012.58 1.26zM337.69 80.38l8.02-4.53-8.02 4.53z"/>
    <path d="M240.67 4.78l36.79 37.54.86-1.78a15.67 15.67 0 0122.08-6.94l45.31 25.6-101.1-57.11A24.13 24.13 0 00242 .83l-.59-.22h-.11c-3.06-1.11-5.79-.99-.63 4.17z" fill="#40dbff"/>
    <path class="cls-3" d="M337.69 80.38l8.02-4.53-8.02 4.53z"/>
    <path d="M278.32 40.54l-.86 1.78 24.39 24.87 8.75-9c6.49-6.68 18.44-8.4 26.55-3.82l8.56 4.84L300.4 33.6a15.67 15.67 0 00-22.08 6.94z" fill="#3dbbff"/>
    <path class="cls-2" d="M241.35 134.47l-.31.11zM244.14 133.22l.47-.26a21.43 21.43 0 01-2.58 1.25 17.37 17.37 0 002.11-.99zM240.42 134.77c-.31.08-.61.15-.9.2a8.71 8.71 0 00.9-.2zM239.41 135a5.51 5.51 0 01-.69.06 4.39 4.39 0 00.69-.06z"/>
    <path d="M278.37 94.48l-1-2.09L240.79 130c-3.82 3.82-3.6 5-2.07 5a5.51 5.51 0 00.69-.06h.11c.29-.05.59-.12.9-.2l.62-.19.31-.11.68-.26a21.43 21.43 0 002.58-1.25l55.85-31.55a15.69 15.69 0 01-22.09-6.9z" fill="#f140ff"/>
    <path d="M278.37 94.48a15.69 15.69 0 0022.09 6.93l37.23-21c-8.11 4.58-20.08 2.89-26.6-3.76l-9.24-9.43-24.49 25.2z" fill="#b353ff"/>
    <path d="M345.71 59.2l-8.56-4.84c-8.11-4.58-20.06-2.86-26.55 3.82l-8.75 9 9.24 9.43c6.52 6.65 18.49 8.34 26.6 3.76l8-4.53c8.13-4.57 8.13-12.06.02-16.64z" fill="#945dff"/>
  </g>
</svg>
